<svg xmlns="http://www.w3.org/2000/svg" version="1.1" xmlns:xlink="http://www.w3.org/1999/xlink" xmlns:svgjs="http://svgjs.dev/svgjs" width="2000" height="1500" viewBox="0 0 2000 1500"><rect width="2000" height="1500" fill="#000000"></rect><g transform="matrix(0.75,0,0,0.75,249.090909090909,327.88469307672153)"><svg viewBox="0 0 396 223" data-background-color="#000000" preserveAspectRatio="xMidYMid meet" height="1126" width="2000" xmlns="http://www.w3.org/2000/svg" xmlns:xlink="http://www.w3.org/1999/xlink"><g id="tight-bounds" transform="matrix(1,0,0,1,0.2400000000000091,-0.03556726596673343)"><svg viewBox="0 0 395.52 223.07113453193347" height="223.07113453193347" width="395.52"><g><svg viewBox="0 0 830.117105316 468.1815444913143" height="223.07113453193347" width="395.52"><g transform="matrix(1,0,0,1,434.597105316,106.3504478044328)"><svg viewBox="0 0 395.52 255.4806488824487" height="255.4806488824487" width="395.52"><g id="textblocktransform"><svg viewBox="0 0 395.52 255.4806488824487" height="255.4806488824487" width="395.52" id="textblock"><g><svg viewBox="0 0 395.52 184.51187037151138" height="184.51187037151138" width="395.52"><rect width="395.52" height="184.51187037151138" x="0" y="0" opacity="1" fill="#48937e" data-fill-palette-color="tertiary"></rect><g transform="matrix(1,0,0,1,23.461705032,23.461705032)"><svg width="348.596589936" viewBox="2.400000000000003 -36 237.40000000000006 91.9" height="137.58846030751138" data-palette-color="#000000"><svg></svg><svg></svg><g class="wordmark-text-0" data-fill-palette-color="quaternary" id="text-0"><path d="M3.6-34.3h17c1.633 0 3.133 0.373 4.5 1.12 1.367 0.753 2.46 1.77 3.28 3.05 0.813 1.287 1.22 2.697 1.22 4.23v0c0 2.333-0.55 4.133-1.65 5.4-1.1 1.267-2.5 2.133-4.2 2.6v0 0.25c1.833 0.367 3.4 1.217 4.7 2.55 1.3 1.333 1.95 3.317 1.95 5.95v0c0 1.667-0.423 3.2-1.27 4.6-0.853 1.4-2.003 2.507-3.45 3.32-1.453 0.82-3.047 1.23-4.78 1.23v0h-17.3zM18.4-20.4c1 0 1.883-0.383 2.65-1.15 0.767-0.767 1.15-1.733 1.15-2.9v0c0-1.4-0.383-2.41-1.15-3.03-0.767-0.613-1.65-0.92-2.65-0.92v0h-7.5v8zM18.95-6.2c1.1 0 2.033-0.383 2.8-1.15 0.767-0.767 1.15-1.7 1.15-2.8v0-0.45c0-1.1-0.383-2.033-1.15-2.8-0.767-0.767-1.7-1.15-2.8-1.15v0h-8.05v8.35zM51.2-17.25c0-1.133-0.357-2.05-1.07-2.75-0.72-0.7-1.88-1.05-3.48-1.05v0c-0.933 0-1.733 0.157-2.4 0.47-0.667 0.32-1.173 0.713-1.52 1.18-0.353 0.467-0.53 0.9-0.53 1.3v0 0.4h-7.05c-0.067-0.4-0.1-0.7-0.1-0.9v0c0-1.433 0.477-2.717 1.43-3.85 0.947-1.133 2.27-2.017 3.97-2.65 1.7-0.633 3.65-0.95 5.85-0.95v0h1.05c3.6 0 6.333 0.707 8.2 2.12 1.867 1.42 2.8 3.363 2.8 5.83v0 11.8c0 0.6 0.143 1.05 0.43 1.35 0.28 0.3 0.62 0.45 1.02 0.45v0c0.333 0 0.7-0.067 1.1-0.2 0.4-0.133 0.717-0.25 0.95-0.35v0 4.5c-1.233 0.7-2.7 1.05-4.4 1.05v0c-1.833 0-3.233-0.377-4.2-1.13-0.967-0.747-1.533-1.803-1.7-3.17v0c-2.333 2.867-5.2 4.3-8.6 4.3v0c-2.533 0-4.617-0.517-6.25-1.55-1.633-1.033-2.45-3-2.45-5.9v0c0-2.367 0.673-4.177 2.02-5.43 1.353-1.247 3.23-2.087 5.63-2.52 2.4-0.433 5.5-0.65 9.3-0.65v0zM51.2-11.45c-3.167 0-5.523 0.307-7.07 0.92-1.553 0.62-2.33 1.63-2.33 3.03v0c0 1.1 0.31 1.873 0.93 2.32 0.613 0.453 1.553 0.68 2.82 0.68v0c0.867 0 1.733-0.233 2.6-0.7 0.867-0.467 1.593-1.133 2.18-2 0.58-0.867 0.87-1.833 0.87-2.9v0zM70.05-8.15v0.35c0 1.167 0.517 2.007 1.55 2.52 1.033 0.52 2.317 0.78 3.85 0.78v0c1.333 0 2.527-0.2 3.58-0.6 1.047-0.4 1.57-1.033 1.57-1.9v0c0-0.933-0.483-1.6-1.45-2-0.967-0.4-2.467-0.75-4.5-1.05v0c-2.133-0.367-3.883-0.767-5.25-1.2-1.367-0.433-2.54-1.183-3.52-2.25-0.987-1.067-1.48-2.55-1.48-4.45v0c0-1.733 0.51-3.21 1.53-4.43 1.013-1.213 2.363-2.13 4.05-2.75 1.68-0.613 3.52-0.92 5.52-0.92v0h1c1.767 0 3.443 0.29 5.03 0.87 1.58 0.587 2.853 1.403 3.82 2.45 0.967 1.053 1.45 2.247 1.45 3.58v0c0 0.267-0.017 0.507-0.05 0.72-0.033 0.22-0.05 0.347-0.05 0.38v0h-6.4c0-2-1.533-3-4.6-3v0c-1.4 0-2.523 0.2-3.37 0.6-0.853 0.4-1.28 0.95-1.28 1.65v0c0 0.833 0.46 1.417 1.38 1.75 0.913 0.333 2.353 0.65 4.32 0.95v0c2.233 0.367 4.043 0.757 5.43 1.17 1.38 0.42 2.587 1.17 3.62 2.25 1.033 1.087 1.55 2.613 1.55 4.58v0c0 3.033-1.067 5.223-3.2 6.57-2.133 1.353-4.85 2.03-8.15 2.03v0h-1.65c-2.067 0-3.917-0.317-5.55-0.95-1.633-0.633-2.907-1.533-3.82-2.7-0.92-1.167-1.38-2.5-1.38-4v0l0.05-1zM92.35-30.25v-5.75h7.4v5.75zM99.7 0h-7.3v-25.55h7.3zM112.55-10.35c0 1.667 0.433 3.057 1.3 4.17 0.867 1.12 2.033 1.68 3.5 1.68v0c1.533 0 2.743-0.477 3.63-1.43 0.88-0.947 1.32-2.353 1.32-4.22v0h6.9c0 2.367-0.507 4.35-1.52 5.95-1.02 1.6-2.363 2.783-4.03 3.55-1.667 0.767-3.5 1.15-5.5 1.15v0h-0.8c-3.733 0-6.7-1.11-8.9-3.33-2.2-2.213-3.3-5.287-3.3-9.22v0-1.45c0-2.6 0.527-4.843 1.58-6.73 1.047-1.88 2.487-3.32 4.32-4.32 1.833-1 3.933-1.5 6.3-1.5v0h0.8c1.967 0 3.793 0.423 5.48 1.27 1.68 0.853 3.03 2.087 4.05 3.7 1.013 1.62 1.52 3.53 1.52 5.73v0h-7.25c0-1.733-0.383-3.117-1.15-4.15-0.767-1.033-1.9-1.55-3.4-1.55v0c-1.5 0-2.683 0.59-3.55 1.77-0.867 1.187-1.3 2.68-1.3 4.48v0z" fill="#000000" fill-rule="nonzero" stroke="none" stroke-width="1" stroke-linecap="butt" stroke-linejoin="miter" stroke-miterlimit="10" stroke-dasharray="" stroke-dashoffset="0" font-family="none" font-weight="none" font-size="none" text-anchor="none" style="mix-blend-mode: normal" data-fill-palette-color="quaternary" opacity="1"></path><path transform="translate(0,46.85)" d="M10.5-13.6c0 2.533 0.683 4.49 2.05 5.87 1.367 1.387 3.1 2.08 5.2 2.08v0c2.367 0 4.117-0.643 5.25-1.93 1.133-1.28 1.7-3.253 1.7-5.92v0h7.05c0 2.933-0.59 5.457-1.77 7.57-1.187 2.12-2.813 3.72-4.88 4.8-2.067 1.087-4.4 1.63-7 1.63v0h-0.7c-2.867 0-5.433-0.583-7.7-1.75-2.267-1.167-4.05-2.893-5.35-5.18-1.3-2.28-1.95-5.037-1.95-8.27v0-4.9c0-3.133 0.65-5.85 1.95-8.15 1.3-2.3 3.077-4.05 5.33-5.25 2.247-1.2 4.753-1.8 7.52-1.8v0h0.7c2.667 0 5.043 0.523 7.13 1.57 2.08 1.053 3.72 2.637 4.92 4.75 1.2 2.12 1.8 4.713 1.8 7.78v0h-7.35c0-2.6-0.573-4.577-1.72-5.93-1.153-1.347-2.813-2.02-4.98-2.02v0c-2.1 0-3.823 0.69-5.17 2.07-1.353 1.387-2.03 3.347-2.03 5.88v0zM62.1-12.05c0 2.567-0.54 4.8-1.62 6.7-1.087 1.9-2.58 3.35-4.48 4.35-1.9 1-4.033 1.5-6.4 1.5v0h-0.8c-2.367 0-4.5-0.5-6.4-1.5-1.9-1-3.393-2.45-4.48-4.35-1.08-1.9-1.62-4.133-1.62-6.7v0-1.45c0-2.567 0.54-4.8 1.62-6.7 1.087-1.9 2.58-3.35 4.48-4.35 1.9-1 4.033-1.5 6.4-1.5v0h0.8c2.367 0 4.5 0.5 6.4 1.5 1.9 1 3.393 2.45 4.48 4.35 1.08 1.9 1.62 4.133 1.62 6.7v0zM54.7-14.8c0-2.033-0.51-3.583-1.53-4.65-1.013-1.067-2.337-1.6-3.97-1.6v0c-1.633 0-2.957 0.533-3.97 1.6-1.02 1.067-1.53 2.617-1.53 4.65v0 4.05c0 2.033 0.51 3.583 1.53 4.65 1.013 1.067 2.337 1.6 3.97 1.6v0c1.633 0 2.957-0.533 3.97-1.6 1.02-1.067 1.53-2.617 1.53-4.65v0zM81.35-26.05c1.633 0 3.1 0.35 4.4 1.05 1.3 0.7 2.3 1.717 3 3.05v0c1.733-2.733 4.217-4.1 7.45-4.1v0c2.4 0 4.393 0.723 5.98 2.17 1.58 1.453 2.37 3.463 2.37 6.03v0 17.85h-7.3v-16.4c0-1.4-0.3-2.477-0.9-3.23-0.6-0.747-1.433-1.12-2.5-1.12v0c-1.167 0-2.15 0.467-2.95 1.4-0.8 0.933-1.2 2.1-1.2 3.5v0 15.85h-7.3v-16.4c0-1.367-0.31-2.433-0.93-3.2-0.613-0.767-1.453-1.15-2.52-1.15v0c-1.167 0-2.14 0.467-2.92 1.4-0.787 0.933-1.18 2.1-1.18 3.5v0 15.85h-7.3v-25.55h5.5c0.2 0.833 0.467 2.083 0.8 3.75v0c0.9-1.433 1.993-2.5 3.28-3.2 1.28-0.7 2.687-1.05 4.22-1.05zM116.8-25.55l0.75 3.2c1.867-2.467 4.267-3.7 7.2-3.7v0c2 0 3.8 0.483 5.4 1.45 1.6 0.967 2.867 2.433 3.8 4.4 0.933 1.967 1.4 4.4 1.4 7.3v0 0.55c0 2.767-0.433 5.117-1.3 7.05-0.867 1.933-2.04 3.383-3.52 4.35-1.487 0.967-3.163 1.45-5.03 1.45v0c-1.6 0-3.007-0.333-4.22-1-1.22-0.667-2.197-1.483-2.93-2.45v0 12h-7.3v-34.6zM127.95-15c0-1.967-0.45-3.467-1.35-4.5-0.9-1.033-2.05-1.55-3.45-1.55v0c-1.4 0-2.55 0.517-3.45 1.55-0.9 1.033-1.35 2.533-1.35 4.5v0 4.15c0 1.933 0.45 3.423 1.35 4.47 0.9 1.053 2.05 1.58 3.45 1.58v0c1.4 0 2.55-0.527 3.45-1.58 0.9-1.047 1.35-2.537 1.35-4.47v0zM164.05-6c0 0.5 0.15 0.873 0.45 1.12 0.3 0.253 0.633 0.38 1 0.38v0c0.333 0 0.7-0.067 1.1-0.2 0.4-0.133 0.717-0.25 0.95-0.35v0 4.5c-1.233 0.7-2.7 1.05-4.4 1.05v0c-3.333 0-5.267-1.217-5.8-3.65v0c-2.1 2.433-4.667 3.65-7.7 3.65v0c-2.6 0-4.743-0.7-6.43-2.1-1.68-1.4-2.52-3.433-2.52-6.1v0-17.85h7.3v16.25c0 1.3 0.377 2.373 1.13 3.22 0.747 0.853 1.703 1.28 2.87 1.28v0c1.3 0 2.417-0.493 3.35-1.48 0.933-0.98 1.4-2.17 1.4-3.57v0-15.7h7.3zM185.25-0.45c-0.667 0.267-1.54 0.493-2.62 0.68-1.087 0.18-2.047 0.27-2.88 0.27v0c-2.567 0-4.5-0.55-5.8-1.65-1.3-1.1-1.95-2.933-1.95-5.5v0-13.9h-2.8v-5h3.05l2.55-8.15h4.5v8.15h5.95v5h-5.95v12.65c0 1.333 0.257 2.233 0.77 2.7 0.52 0.467 1.213 0.7 2.08 0.7v0c0.4 0 0.917-0.067 1.55-0.2 0.633-0.133 1.15-0.283 1.55-0.45v0zM213.65-9.55c0 2.233-0.533 4.107-1.6 5.62-1.067 1.52-2.473 2.637-4.22 3.35-1.753 0.72-3.663 1.08-5.73 1.08v0h-0.8c-2.367 0-4.5-0.5-6.4-1.5-1.9-1-3.39-2.443-4.47-4.33-1.087-1.88-1.63-4.12-1.63-6.72v0-1.45c0-2.567 0.55-4.8 1.65-6.7 1.1-1.9 2.593-3.35 4.48-4.35 1.88-1 4.003-1.5 6.37-1.5v0h0.8c2.067 0 3.983 0.423 5.75 1.27 1.767 0.853 3.183 2.087 4.25 3.7 1.067 1.62 1.6 3.53 1.6 5.73v0 3.8h-17.5v1.2c0 1.667 0.493 3.057 1.48 4.17 0.98 1.12 2.32 1.68 4.02 1.68v0c1.533 0 2.743-0.427 3.63-1.28 0.88-0.847 1.32-2.103 1.32-3.77v0zM201.35-21.05c-1.467 0-2.657 0.517-3.57 1.55-0.92 1.033-1.447 2.35-1.58 3.95v0h10.1c0-1.7-0.39-3.043-1.17-4.03-0.787-0.98-2.047-1.47-3.78-1.47zM233.5-15.65v-1.15c0-1.033-0.283-1.927-0.85-2.68-0.567-0.747-1.467-1.12-2.7-1.12v0c-1.167 0-2.057 0.457-2.67 1.37-0.62 0.92-0.93 2.063-0.93 3.43v0 15.8h-7.2v-25.55h5.4l0.9 3.75c0.133-0.367 0.477-0.883 1.03-1.55 0.547-0.667 1.347-1.283 2.4-1.85 1.047-0.567 2.287-0.85 3.72-0.85v0c2.3 0 4.077 0.717 5.33 2.15 1.247 1.433 1.87 3.333 1.87 5.7v0c0 0.5-0.023 1-0.07 1.5-0.053 0.5-0.097 0.85-0.13 1.05v0z" fill="#000000" fill-rule="nonzero" stroke="none" stroke-width="1" stroke-linecap="butt" stroke-linejoin="miter" stroke-miterlimit="10" stroke-dasharray="" stroke-dashoffset="0" font-family="none" font-weight="none" font-size="none" text-anchor="none" style="mix-blend-mode: normal" data-fill-palette-color="quaternary" opacity="1"></path></g></svg></g></svg></g><g transform="matrix(1,0,0,1,0,196.24272288751138)"><svg viewBox="0 0 222.7667186887928 59.23792599493729" height="59.23792599493729" width="222.7667186887928"><g transform="matrix(1,0,0,1,0,0)"><svg width="222.7667186887928" viewBox="3.85 -32.6 124.84 33.2" height="59.23792599493729" data-palette-color="#48937e"><path d="M10.45 0L3.85 0 3.85-32.6 11.9-32.6 17.15-18.1Q17.65-16.65 18.1-15.13 18.55-13.6 19.05-12.1L19.05-12.1 19.25-12.1Q19.75-13.6 20.18-15.13 20.6-16.65 21.1-18.1L21.1-18.1 26.25-32.6 34.25-32.6 34.25 0 27.55 0 27.55-11.95Q27.55-13.15 27.65-14.6 27.75-16.05 27.9-17.53 28.05-19 28.2-20.43 28.35-21.85 28.5-23.05L28.5-23.05 28.3-23.05 25.65-15.3 21-2.85 16.95-2.85 12.3-15.3 9.7-23.05 9.5-23.05Q9.65-21.85 9.8-20.43 9.95-19 10.1-17.53 10.25-16.05 10.35-14.6 10.45-13.15 10.45-11.95L10.45-11.95 10.45 0ZM48.55 0L41.95 0 41.95-32.6 50-32.6 55.25-18.1Q55.75-16.65 56.2-15.13 56.65-13.6 57.15-12.1L57.15-12.1 57.35-12.1Q57.85-13.6 58.27-15.13 58.7-16.65 59.2-18.1L59.2-18.1 64.35-32.6 72.35-32.6 72.35 0 65.65 0 65.65-11.95Q65.65-13.15 65.75-14.6 65.85-16.05 66-17.53 66.15-19 66.3-20.43 66.45-21.85 66.6-23.05L66.6-23.05 66.4-23.05 63.75-15.3 59.1-2.85 55.05-2.85 50.4-15.3 47.8-23.05 47.6-23.05Q47.75-21.85 47.9-20.43 48.05-19 48.2-17.53 48.35-16.05 48.45-14.6 48.55-13.15 48.55-11.95L48.55-11.95 48.55 0ZM89.65 0L80.05 0 80.05-32.6 89.25-32.6Q93-32.6 96-31.65 99-30.7 101.15-28.73 103.3-26.75 104.45-23.7 105.6-20.65 105.6-16.45L105.6-16.45Q105.6-12.25 104.45-9.15 103.3-6.05 101.2-4.03 99.1-2 96.17-1 93.25 0 89.65 0L89.65 0ZM87.4-26.65L87.4-5.95 88.8-5.95Q90.9-5.95 92.6-6.5 94.3-7.05 95.5-8.28 96.7-9.5 97.37-11.5 98.05-13.5 98.05-16.45L98.05-16.45Q98.05-19.35 97.37-21.33 96.7-23.3 95.5-24.48 94.3-25.65 92.6-26.15 90.9-26.65 88.8-26.65L88.8-26.65 87.4-26.65ZM118.49 0.6L118.49 0.6Q116.04 0.6 113.47-0.35 110.89-1.3 108.99-2.85L108.99-2.85 112.29-7.45Q113.99-6.15 115.54-5.5 117.09-4.85 118.69-4.85L118.69-4.85Q120.34-4.85 121.09-5.4 121.84-5.95 121.84-6.95L121.84-6.95Q121.84-7.55 121.42-8.03 120.99-8.5 120.27-8.9 119.54-9.3 118.64-9.63 117.74-9.95 116.79-10.35L116.79-10.35Q115.64-10.8 114.49-11.4 113.34-12 112.39-12.88 111.44-13.75 110.84-14.93 110.24-16.1 110.24-17.65L110.24-17.65Q110.24-19.35 110.92-20.8 111.59-22.25 112.84-23.25 114.09-24.25 115.84-24.83 117.59-25.4 119.74-25.4L119.74-25.4Q122.59-25.4 124.74-24.43 126.89-23.45 128.49-22.25L128.49-22.25 125.19-17.85Q123.84-18.85 122.54-19.4 121.24-19.95 119.94-19.95L119.94-19.95Q117.14-19.95 117.14-18L117.14-18Q117.14-17.4 117.54-16.98 117.94-16.55 118.62-16.2 119.29-15.85 120.17-15.53 121.04-15.2 121.99-14.85L121.99-14.85Q123.19-14.4 124.37-13.83 125.54-13.25 126.52-12.4 127.49-11.55 128.09-10.33 128.69-9.1 128.69-7.4L128.69-7.4Q128.69-5.7 128.04-4.25 127.39-2.8 126.09-1.73 124.79-0.65 122.89-0.03 120.99 0.6 118.49 0.6Z" opacity="1" transform="matrix(1,0,0,1,0,0)" fill="#48937e" class="slogan-text-1" data-fill-palette-color="secondary" id="text-1"></path></svg></g></svg></g></svg></g></svg></g><g><svg viewBox="0 0 422.8662528 468.1815444913143" height="468.1815444913143" width="422.8662528"><g><svg version="1.0" xmlns="http://www.w3.org/2000/svg" xmlns:xlink="http://www.w3.org/1999/xlink" x="0" y="0" viewBox="0 0 90.321 100" enable-background="new 0 0 90.321 100" xml:space="preserve" width="422.8662528" height="468.1815444913143" class="icon-icon-0" data-fill-palette-color="accent" id="icon-0"><path fill-rule="evenodd" clip-rule="evenodd" d="M77.6 83.44v-6.752H62.644v-3.862h25.388c0.911 0 1.65-0.747 1.65-1.667V1.669c0-0.922-0.739-1.669-1.65-1.669H1.97C1.059 0 0.32 0.747 0.32 1.669v69.49c0 0.92 0.739 1.667 1.65 1.667h25.693v3.862H12.72v6.752L0 92.602V100h90.321v-7.398L77.6 83.44zM6.36 66.249V6.041c0-0.795 0.636-1.44 1.417-1.44h74.127c0.781 0 1.417 0.646 1.417 1.44v60.208c0 0.796-0.636 1.438-1.417 1.438H7.777C6.996 67.688 6.36 67.045 6.36 66.249zM4.444 92.278l11.458-8.204h58.518l11.443 8.204H4.444z" fill="#f231aa" data-fill-palette-color="accent"></path></svg></g></svg></g></svg></g><defs></defs></svg><rect width="395.52" height="223.07113453193347" fill="none" stroke="none" visibility="hidden"></rect></g></svg></g></svg>